<svg width="16" height="16" viewBox="0 0 16 16" fill="none" xmlns="http://www.w3.org/2000/svg">
<path d="M16 8C16 12.4183 12.4183 16 8 16C3.58172 16 0 12.4183 0 8C0 3.58172 3.58172 0 8 0C12.4183 0 16 3.58172 16 8Z" fill="#222D34"/>
<path d="M16 8C16 9.58225 15.5308 11.129 14.6518 12.4446C13.7727 13.7602 12.5233 14.7855 11.0615 15.391C9.59966 15.9965 7.99113 16.155 6.43928 15.8463C4.88743 15.5376 3.46197 14.7757 2.34315 13.6569C1.22433 12.538 0.4624 11.1126 0.153718 9.56072C-0.154964 8.00887 0.00346269 6.40034 0.608964 4.93853C1.21446 3.47672 2.23985 2.22729 3.55544 1.34824C4.87103 0.469192 6.41775 -1.88681e-08 8 0V8H16Z" fill="#222D34"/>
</svg>
