<svg width="16" height="16" viewBox="0 0 16 16" fill="none" xmlns="http://www.w3.org/2000/svg">
<path d="M8 -3.49691e-07C12.4183 -5.4282e-07 16 3.58172 16 8C16 12.4183 12.4183 16 8 16C3.58172 16 -1.56562e-07 12.4183 -3.49691e-07 8C-5.4282e-07 3.58172 3.58172 -1.56562e-07 8 -3.49691e-07Z" fill="#EBF1F4"/>
<path d="M8 -3.49691e-07C9.58225 -4.18853e-07 11.129 0.469191 12.4446 1.34824C13.7602 2.22729 14.7855 3.47672 15.391 4.93853C15.9965 6.40034 16.155 8.00887 15.8463 9.56072C15.5376 11.1126 14.7757 12.538 13.6569 13.6569C12.538 14.7757 11.1126 15.5376 9.56072 15.8463C8.00887 16.155 6.40034 15.9965 4.93853 15.391C3.47672 14.7855 2.22729 13.7602 1.34824 12.4446C0.469192 11.129 -2.99397e-07 9.58225 -3.49691e-07 8L8 8L8 -3.49691e-07Z" fill="#222D34"/>
</svg>
