<svg width="24" height="24" viewBox="0 0 24 24" fill="none" xmlns="http://www.w3.org/2000/svg">
<path d="M19.5 19H4.5C3.83696 19 3.20107 18.7366 2.73223 18.2678C2.26339 17.7989 2 17.163 2 16.5V7.5C2 6.83696 2.26339 6.20107 2.73223 5.73223C3.20107 5.26339 3.83696 5 4.5 5H19.5C20.163 5 20.7989 5.26339 21.2678 5.73223C21.7366 6.20107 22 6.83696 22 7.5V16.5C22 17.163 21.7366 17.7989 21.2678 18.2678C20.7989 18.7366 20.163 19 19.5 19ZM4.5 6C4.10218 6 3.72064 6.15804 3.43934 6.43934C3.15804 6.72064 3 7.10218 3 7.5V16.5C3 16.8978 3.15804 17.2794 3.43934 17.5607C3.72064 17.842 4.10218 18 4.5 18H19.5C19.8978 18 20.2794 17.842 20.5607 17.5607C20.842 17.2794 21 16.8978 21 16.5V7.5C21 7.10218 20.842 6.72064 20.5607 6.43934C20.2794 6.15804 19.8978 6 19.5 6H4.5Z" fill="#222D34"/>
<path d="M19 8H5V10H19V8Z" fill="#222D34"/>
</svg>
