<svg width="16" height="16" viewBox="0 0 16 16" fill="none" xmlns="http://www.w3.org/2000/svg">
<path d="M8 -3.49691e-07C12.4183 -5.4282e-07 16 3.58172 16 8C16 12.4183 12.4183 16 8 16C3.58172 16 -1.56562e-07 12.4183 -3.49691e-07 8C-5.4282e-07 3.58172 3.58172 -1.56562e-07 8 -3.49691e-07Z" fill="#EBF1F4"/>
<path d="M8 -3.49691e-07C9.05057 -3.95613e-07 10.0909 0.206926 11.0615 0.608963C12.0321 1.011 12.914 1.60028 13.6569 2.34315C14.3997 3.08601 14.989 3.96793 15.391 4.93853C15.7931 5.90914 16 6.94942 16 8C16 9.05057 15.7931 10.0909 15.391 11.0615C14.989 12.0321 14.3997 12.914 13.6569 13.6569C12.914 14.3997 12.0321 14.989 11.0615 15.391C10.0909 15.7931 9.05057 16 8 16L8 8L8 -3.49691e-07Z" fill="#222D34"/>
</svg>
