<svg width="35" height="13" viewBox="0 0 35 13" fill="none" xmlns="http://www.w3.org/2000/svg">
<path d="M14.6787 9H12.6467V9.208C12.6467 10.3493 12.3427 11.2613 11.7347 11.944C11.1267 12.6267 10.252 12.968 9.11069 12.968H4.90269C4.12402 12.968 3.41469 12.824 2.77469 12.536C2.13469 12.248 1.62802 11.8427 1.25469 11.32C0.881354 10.808 0.694688 10.2213 0.694688 9.56C0.694688 8.90933 0.833354 7.73067 1.11069 6.024L2.27869 6.216C2.04402 7.784 1.92669 8.808 1.92669 9.288C1.92669 9.78933 2.05469 10.2373 2.31069 10.632C2.57735 11.0267 2.92935 11.3307 3.36669 11.544C3.81469 11.7573 4.30002 11.864 4.82269 11.864L9.04669 11.88C9.80402 11.88 10.3854 11.6347 10.7907 11.144C11.2067 10.664 11.4147 10.0507 11.4147 9.304C11.4147 9.16533 11.4094 9.064 11.3987 9H11.0147C10.1827 9 9.52669 8.84533 9.04669 8.536L9.55869 7.624C9.75069 7.752 9.95335 7.832 10.1667 7.864C10.3907 7.88533 10.7107 7.896 11.1267 7.896H14.6787V9ZM18.2957 1V9H14.6797V7.896H17.0637V1H18.2957ZM17.0637 10.28H18.2797V11.624H17.0637V10.28ZM26.0343 9H24.0343V9.176C24.0343 11.7147 23.1543 12.984 21.3943 12.984C21.2236 12.984 21.0636 12.9787 20.9143 12.968C20.7756 12.9573 20.653 12.9467 20.5463 12.936L20.2103 12.904V11.816C20.7436 11.8587 21.0796 11.88 21.2183 11.88C21.7516 11.88 22.1463 11.6667 22.4023 11.24C22.669 10.824 22.8023 10.2373 22.8023 9.48V1.016H24.0343V7.896H26.0343V9ZM34.4711 7.896V9H26.0391V7.896H29.0311C28.7324 7.55467 28.4817 7.096 28.2791 6.52C28.0764 5.944 27.9751 5.304 27.9751 4.6C27.9751 3.48 28.2631 2.57333 28.8391 1.88C29.4257 1.18667 30.2631 0.839999 31.3511 0.839999C31.7671 0.839999 32.2097 0.898666 32.6791 1.016C33.1591 1.12267 33.5964 1.27733 33.9911 1.48L33.9431 2.568C33.7831 2.45067 33.4417 2.31733 32.9191 2.168C32.3964 2.01867 31.9217 1.944 31.4951 1.944C30.7591 1.944 30.1937 2.18933 29.7991 2.68C29.4044 3.17067 29.2071 3.83733 29.2071 4.68C29.2071 5.37333 29.3297 6.00267 29.5751 6.568C29.8311 7.12267 30.1457 7.56533 30.5191 7.896H34.4711Z" fill="#222D34"/>
</svg>
