<svg width="74" height="74" viewBox="0 0 74 74" fill="none" xmlns="http://www.w3.org/2000/svg">
<path fill-rule="evenodd" clip-rule="evenodd" d="M36.9631 56.2502C38.4819 56.2502 39.7131 55.019 39.7131 53.5002C39.7131 51.9814 38.4819 50.7502 36.9631 50.7502C35.4443 50.7502 34.2131 51.9814 34.2131 53.5002C34.2131 55.019 35.4443 56.2502 36.9631 56.2502Z" fill="#222D34"/>
<path fill-rule="evenodd" clip-rule="evenodd" d="M36.9997 73.6668C28.5166 73.6686 20.2953 70.729 13.7367 65.3487C7.17801 59.9684 2.68783 52.4804 1.03121 44.1606C-0.625413 35.8408 0.654027 27.204 4.65152 19.7218C8.64902 12.2396 15.1172 6.37493 22.954 3.12715C30.7908 -0.120632 39.5113 -0.550602 47.6296 1.9105C55.7478 4.37161 62.7616 9.57151 67.4757 16.6242C72.1899 23.6769 74.3127 32.1459 73.4826 40.5883C72.6524 49.0307 68.9206 56.9241 62.9231 62.9235C56.0483 69.8003 46.7236 73.6648 36.9997 73.6668ZM36.9997 4.00017C29.3647 3.99345 21.9635 6.63443 16.0574 11.4731C10.1513 16.3117 6.10569 23.0486 4.61005 30.5358C3.11441 38.0229 4.26124 45.7971 7.85511 52.5334C11.449 59.2698 17.2675 64.5516 24.3192 67.4787C31.3709 70.4058 39.2195 70.7972 46.5274 68.5861C53.8353 66.375 60.1504 61.6983 64.3966 55.3528C68.6428 49.0074 70.5573 41.3859 69.8139 33.7871C69.0705 26.1883 65.7152 19.0824 60.3198 13.6802C57.2656 10.6052 53.632 8.16633 49.6292 6.50478C45.6263 4.84322 41.3337 3.99194 36.9997 4.00017Z" fill="#222D34"/>
<path fill-rule="evenodd" clip-rule="evenodd" d="M36.9997 46.1668C36.5135 46.1668 36.0472 45.9737 35.7034 45.6299C35.3596 45.2861 35.1664 44.8197 35.1664 44.3335V19.5835C35.1664 19.0973 35.3596 18.631 35.7034 18.2871C36.0472 17.9433 36.5135 17.7502 36.9997 17.7502C37.486 17.7502 37.9523 17.9433 38.2961 18.2871C38.6399 18.631 38.8331 19.0973 38.8331 19.5835V44.3335C38.8331 44.8197 38.6399 45.2861 38.2961 45.6299C37.9523 45.9737 37.486 46.1668 36.9997 46.1668Z" fill="#222D34"/>
</svg>
