<svg width="40" height="42" viewBox="0 0 40 42" fill="none" xmlns="http://www.w3.org/2000/svg">
<path d="M20.002 41.002C17.3025 41.002 14.6811 40.4746 12.216 39.4315C9.83299 38.4236 7.69606 36.9781 5.85995 35.142C4.02383 33.3059 2.57838 31.169 1.57047 28.7859C0.527395 26.3208 0 23.6995 0 21C0 20.2226 0.628968 19.5936 1.40639 19.5936C2.18381 19.5936 2.81277 20.2226 2.81277 21C2.81277 23.3205 3.26594 25.5708 4.16447 27.6921C5.03174 29.7391 6.27014 31.5792 7.84842 33.1574C9.4267 34.7357 11.2667 35.978 13.3138 36.8414C15.4312 37.736 17.6814 38.1892 20.002 38.1892C22.3225 38.1892 24.5727 37.736 26.694 36.8375C28.7411 35.9702 30.5811 34.7318 32.1594 33.1535C33.7377 31.5753 34.98 29.7352 35.8433 27.6882C36.738 25.5708 37.1911 23.3205 37.1911 21C37.1911 18.6795 36.738 16.4292 35.8394 14.3079C34.9722 12.2609 33.7338 10.4247 32.1555 8.84256C30.5772 7.26428 28.7372 6.02198 26.6901 5.15861C24.5727 4.26399 22.3225 3.81082 20.002 3.81082C19.2245 3.81082 18.5956 3.18185 18.5956 2.40443C18.5956 1.62701 19.2245 0.998047 20.002 0.998047C22.7014 0.998047 25.3228 1.52544 27.7879 2.56851C30.1709 3.57642 32.3078 5.02188 34.144 6.85799C35.9801 8.69411 37.4216 10.8349 38.4295 13.2141C39.4726 15.6792 40 18.3005 40 21C40 23.6995 39.4726 26.3208 38.4295 28.7859C37.4255 31.169 35.9801 33.3059 34.144 35.142C32.3078 36.9781 30.167 38.4197 27.7879 39.4276C25.3228 40.4746 22.7014 41.002 20.002 41.002Z" fill="#222D34"/>
</svg>
